PathFileType	4	(X/Y/Z)	Kaydara																																																																																																																									
DataRate	CameraRate	NumFrames	NumMarkers	Units	OrigDataRate	OrigDataStartFrame	OrigNumFrames																																																																																																																					
30	30	4	41	mm	30	88	232																																																																																																																					
Frame#	Time	EMLA_LFHD			EMLA_RFHD			EMLA_LBHD			EMLA_RBHD			EMLA_LFTShould			EMLA_RFTShould			EMLA_LRRShould			EMLA_RRRShould			EMLA_T10			EMLA_STRN			EMLA_TRUN			EMLA_LSHO			EMLA_LUPA			EMLA_LELB			EMLA_LFRM			EMLA_LWRA			EMLA_LWRB			EMLA_LFIN			EMLA_RSHO			EMLA_RUPA			EMLA_RELB			EMLA_RFRM			EMLA_RWRA			EMLA_RWRB			EMLA_RFIN			EMLA_LFWT			EMLA_RFWT			EMLA_LBWT			EMLA_RBWT			EMLA_LTHI			EMLA_LKNE			EMLA_LSHN			EMLA_LANK			EMLA_LHEE			EMLA_LTOE			EMLA_RTHI			EMLA_RKNE			EMLA_RSHN			EMLA_RANK			EMLA_RHEE			EMLA_RTOE		
		X1	Y1	Z1	X2	Y2	Z2	X3	Y3	Z3	X4	Y4	Z4	X5	Y5	Z5	X6	Y6	Z6	X7	Y7	Z7	X8	Y8	Z8	X9	Y9	Z9	X10	Y10	Z10	X11	Y11	Z11	X12	Y12	Z12	X13	Y13	Z13	X14	Y14	Z14	X15	Y15	Z15	X16	Y16	Z16	X17	Y17	Z17	X18	Y18	Z18	X19	Y19	Z19	X20	Y20	Z20	X21	Y21	Z21	X22	Y22	Z22	X23	Y23	Z23	X24	Y24	Z24	X25	Y25	Z25	X26	Y26	Z26	X27	Y27	Z27	X28	Y28	Z28	X29	Y29	Z29	X30	Y30	Z30	X31	Y31	Z31	X32	Y32	Z32	X33	Y33	Z33	X34	Y34	Z34	X35	Y35	Z35	X36	Y36	Z36	X37	Y37	Z37	X38	Y38	Z38	X39	Y39	Z39	X40	Y40	Z40	X41	Y41	Z41
																																																																																																																												
88	2.91	252.42373	1631.27914	-1944.87106	82.84195	1629.68155	-1951.73431	272.21371	1625.21744	-2095.29297	77.51495	1626.6478	-2104.87946	255.73948	1402.33322	-2010.44601	105.44071	1393.14484	-2004.61823	244.66196	1448.4549	-2159.09866	89.1959	1439.00192	-2152.21161	178.94512	1271.52298	-2199.47708	181.73029	1333.10608	-1968.66898	177.7055	1230.18921	-1945.78674	378.56461	1424.12506	-2067.92923	437.18166	1242.69165	-2081.62994	459.08291	1099.26437	-2082.13913	458.87596	962.70279	-2067.2847	375.18337	825.34126	-1978.69141	434.28207	802.40646	-2035.11383	426.58302	773.5112	-1970.784	-18.06713	1422.50977	-2065.65063	-71.01962	1227.06787	-2052.05765	-85.25989	1080.27893	-2059.22516	-83.79084	980.1963	-2055.73898	-6.61793	831.45836	-1942.60788	-54.97018	804.71062	-2007.54669	-64.53368	779.57802	-1948.77289	282.52848	992.11082	-1963.6116	47.38963	978.10692	-1977.52518	262.06226	1013.42926	-2162.94159	86.75092	1012.26082	-2158.63922	306.13083	726.65237	-2150.84427	310.20514	523.10017	-2111.70197	280.57226	342.02633	-2102.63107	281.27579	165.8786	-2176.80176	215.49747	86.03151	-2237.01294	246.9101	74.3697	-2037.91229	58.702	712.89795	-2172.17575	25.52658	511.26213	-2119.25735	69.32827	289.45902	-2118.41873	35.17249	131.56642	-2204.22287	93.2397	78.27917	-2256.46561	52.64937	72.00929	-2056.34064
89	2.943	252.28075	1631.30463	-1944.79736	82.75759	1629.6286	-1951.58951	271.99432	1625.17838	-2095.16449	77.3516	1626.69144	-2104.81964	255.19217	1402.18369	-2010.22202	105.94509	1393.45947	-2003.79257	244.42944	1448.44894	-2158.98346	88.97599	1439.00742	-2152.12601	178.73938	1271.51115	-2199.35974	181.73044	1332.85278	-1968.29361	177.44141	1230.28931	-1945.77225	378.28007	1424.09882	-2067.72781	436.83456	1242.62566	-2081.36383	458.71803	1099.19693	-2081.84372	458.55503	962.66502	-2067.00287	375.09785	825.30869	-1978.31314	434.06986	802.35146	-2034.86145	426.59393	773.55843	-1970.54642	-18.37452	1422.54837	-2065.70892	-71.27753	1227.02209	-2052.14386	-85.55675	1080.30983	-2059.30603	-84.0632	980.22316	-2055.77545	-6.979	831.56036	-1942.57767	-55.23404	804.71771	-2007.52609	-64.9022	779.59724	-1948.75763	282.3068	992.10037	-1963.46146	47.12679	978.0732	-1977.49359	261.83022	1013.43399	-2162.79724	86.53292	1012.25365	-2158.49442	305.84997	726.57906	-2150.60577	310.07114	523.08193	-2111.51443	280.48914	342.03724	-2102.49832	281.18044	165.84919	-2176.65146	215.50232	86.07791	-2236.94504	246.89199	74.36796	-2037.91916	58.55258	712.97813	-2172.24472	25.47831	511.3018	-2119.36111	69.28359	289.46363	-2118.44376	35.14148	131.59576	-2204.24866	93.23896	78.27539	-2256.47141	52.65417	72.00769	-2056.33759
90	2.977	251.99316	1631.18195	-1944.65897	82.45336	1629.63577	-1951.58981	271.78822	1625.14282	-2095.12741	77.1014	1626.66306	-2104.73938	254.97213	1402.21481	-2010.11581	104.97596	1393.15567	-2004.30695	244.19813	1448.44757	-2158.9061	88.72407	1438.98956	-2152.09045	178.4889	1271.50742	-2199.31732	181.27928	1332.89413	-1968.32092	177.18239	1230.26199	-1945.78888	377.93175	1423.93906	-2067.32498	436.5543	1242.55524	-2081.10794	458.39523	1099.13795	-2081.51428	458.29838	962.63817	-2066.66397	374.90067	825.22362	-1978.00278	433.78048	802.28897	-2034.48257	426.36826	773.52982	-1970.15656	-18.67061	1422.57416	-2065.7222	-71.60078	1227.04567	-2052.30667	-85.89307	1080.26741	-2059.36981	-84.37549	980.2401	-2055.77301	-7.30601	831.57661	-1942.43896	-55.54655	804.72084	-2007.37106	-65.16817	779.64912	-1948.61633	281.90004	992.18842	-1963.20694	46.91834	978.13881	-1977.28989	261.60854	1013.38921	-2162.70599	86.31479	1012.16682	-2158.37769	305.68489	726.61903	-2150.41382	309.93671	523.08899	-2111.33301	280.41945	342.03392	-2102.39182	281.19278	165.9013	-2176.6333	215.49809	86.10145	-2236.95511	246.85526	74.35026	-2037.87277	58.32653	713.01064	-2172.23236	25.361	511.22456	-2119.30771	69.22567	289.4873	-2118.44223	35.15677	131.53811	-2204.18839	93.2474	78.30224	-2256.46698	52.65449	71.99903	-2056.33728
91	3.01	251.8375	1631.20026	-1944.70795	82.27255	1629.5903	-1951.47217	271.51936	1625.13702	-2095.12741	76.84911	1626.64413	-2104.6611	254.73665	1402.18887	-2010.11749	104.63629	1393.00186	-2004.41391	243.96173	1448.40134	-2158.87207	88.47654	1438.95767	-2152.10403	178.25251	1271.45203	-2199.28009	180.61413	1332.90405	-1968.47153	177.01004	1230.29587	-1945.73944	377.61742	1423.87054	-2067.13547	436.31927	1242.53403	-2080.93353	458.16509	1099.07692	-2081.24664	458.01414	962.59384	-2066.35788	374.62791	825.28229	-1977.62131	433.44299	802.25937	-2034.09851	426.01036	773.57231	-1969.73434	-18.96984	1422.53586	-2065.78003	-71.89631	1227.00134	-2052.30988	-86.2209	1080.27321	-2059.40506	-84.68279	980.20622	-2055.74142	-7.55235	831.69052	-1942.31445	-55.7912	804.67514	-2007.25311	-65.42665	779.65744	-1948.45963	281.90424	991.97762	-1963.23456	46.73896	978.1572	-1977.1489	261.40076	1013.36998	-2162.55203	86.12226	1012.10373	-2158.25516	305.53768	726.65871	-2150.29449	309.77947	523.09967	-2111.27197	280.34679	342.08122	-2102.36893	281.19242	165.91738	-2176.63162	215.47411	86.09301	-2236.97357	246.83817	74.3532	-2037.8775	58.10824	713.01529	-2172.10571	25.1698	511.2801	-2119.22211	69.143	289.4894	-2118.35327	35.11246	131.54684	-2204.16336	93.23462	78.33743	-2256.45065	52.66787	71.99895	-2056.33301
